<svg xmlns="http://www.w3.org/2000/svg" viewBox="0 0 492.863 234.624"><path d="M498.06,343.82a64.426,64.426,0,0,1-39.33-26.63c-14.58-21.35-31.13-45.56-56.66-58.63-11.42-5.84-24.69-9.64-37.53-13.31-2.44-.7-4.91-1.42-7.39-2.15a54.713,54.713,0,0,1-10.39,45.16,44.44,44.44,0,0,1-29.8,16.87,46.715,46.715,0,0,1-5.55.34,44.445,44.445,0,0,1-27.45-9.49,36.776,36.776,0,0,1-6.34-51.56,30.37,30.37,0,0,1,42.58-5.24,4.724,4.724,0,0,1-5.81,7.45,20.873,20.873,0,0,0-29.32,3.6,27.311,27.311,0,0,0,4.7,38.31,35.351,35.351,0,0,0,49.55-6.09,45.311,45.311,0,0,0,7.38-41.9,4.866,4.866,0,0,1-.25-1.54,4.523,4.523,0,0,1-.84-1.52,59.59,59.59,0,0,0-104.77-16.41,4.723,4.723,0,0,1-8.52-3.14l.02-.42c.13-1.73.25-3.37.25-5A73.783,73.783,0,0,0,85.2,207.37a4.721,4.721,0,0,1-5.28,4.37,63.708,63.708,0,0,0-7.56-.51,62.931,62.931,0,1,0,34.62,115.48,4.9,4.9,0,0,1,1.29-.6,4.744,4.744,0,0,1,5.86,3.24,51.078,51.078,0,0,0,87.97,19.2c.01,0,.01,0,.01-.01s.03-.03.05-.05c4.43-6.63,7.07-14.47,7.07-21a27.8,27.8,0,0,0-27.77-27.77,21.292,21.292,0,0,0-21.27,21.27,16.09,16.09,0,0,0,16.07,16.07,4.72,4.72,0,1,1,0,9.44,25.534,25.534,0,0,1-25.51-25.51,30.743,30.743,0,0,1,30.71-30.71,37.249,37.249,0,0,1,37.21,37.21,45.369,45.369,0,0,1-4,17.64c15.28,18.37,37.47,28.86,59.78,28.15a81.96,81.96,0,0,0,46.69-16.94c2.27-1.79,4.45-3.58,6.6-5.34,11.83-9.68,23.01-18.83,40.11-22.73a86.8,86.8,0,0,1,48.45,3.3,140.819,140.819,0,0,1,17.42,8.04c7.56,3.91,14.7,7.61,22.51,9.34a76.625,76.625,0,0,0,44.54-3.6l1.51-.6ZM151.22,172.95a33.237,33.237,0,0,0-33.21,33.21,4.72,4.72,0,1,1-9.44,0,42.682,42.682,0,0,1,42.65-42.65,4.72,4.72,0,0,1,0,9.44Z" transform="translate(-9.417 -138.69)"/></svg>