<svg xmlns="http://www.w3.org/2000/svg" viewBox="0 0 488.88 226.248"><path d="M443.03,329.23c.11-.05.21-.09.32-.13a4.73,4.73,0,0,1,2.36-.18h.04a54.719,54.719,0,0,0,39.95-92.08,4.494,4.494,0,0,1-.37-.4,54.663,54.663,0,0,0-39.58-16.94,4.72,4.72,0,1,1,0-9.44,64.111,64.111,0,0,1,18.8,2.8,38.355,38.355,0,0,0,.54-6.5,40.764,40.764,0,0,0-40.72-40.72,40.253,40.253,0,0,0-25.15,8.76,4.71,4.71,0,0,1-7.3-1.94,80.874,80.874,0,0,0-29.26-36.57,4.545,4.545,0,0,1-2.59-.6,97.064,97.064,0,0,0-48.8-13.13c-2.04,0-4.07.08-6.07.24-.03,0-.05.01-.07.01h-.02c-39.87,5.58-69.92,40.21-69.92,80.55,0,1.97.08,4.04.23,6.18a60.508,60.508,0,0,0,59.55,50.19,47.466,47.466,0,0,0,47.41-47.41,37.017,37.017,0,0,0-36.98-36.98,4.72,4.72,0,1,1,0-9.44,46.461,46.461,0,0,1,46.42,46.42,56.9,56.9,0,0,1-56.85,56.85,69.966,69.966,0,0,1-64.66-43.41h-.01a56.048,56.048,0,0,0-65.67,19.25l-.03.03a.906.906,0,0,0-.11.16,48.263,48.263,0,0,0-8.15,26.98,38.026,38.026,0,0,0,37.98,37.98,29.478,29.478,0,0,0,29.44-29.44,22.632,22.632,0,0,0-22.61-22.61,17.169,17.169,0,0,0-17.14,17.15,4.72,4.72,0,0,1-9.44,0,26.622,26.622,0,0,1,26.59-26.59,32.089,32.089,0,0,1,32.05,32.05,38.939,38.939,0,0,1-38.89,38.89,47.479,47.479,0,0,1-47.42-47.43,57.528,57.528,0,0,1,2.55-17.12,39.974,39.974,0,0,0-21.71-6.34,40.568,40.568,0,0,0-34.12,18.57,4.669,4.669,0,0,1-4.77,2.07,83.168,83.168,0,0,0-38.05,2.09,75.877,75.877,0,0,0-38,25.26,1.063,1.063,0,0,1-.09.11l-.26.31c-.31.36-.6.71-.89,1.05a25.3,25.3,0,0,1,3.57-2.22,64.247,64.247,0,0,1,46.22-3.41c14.83,4.53,23.72,14.63,30.89,23.76,4.88,6.22,13.7,8.81,17.45,9.92a18.335,18.335,0,0,1,2.17.71,4.622,4.622,0,0,1,2.22,1.92c.4.67.81,1.32,1.24,1.96a40.657,40.657,0,0,0,56.43,11.06,4.744,4.744,0,0,1,5.28,0c.39.26.78.52,1.18.77a40.667,40.667,0,0,0,56.02-13.01,4.691,4.691,0,0,1,1.81-1.67,56.435,56.435,0,0,0,16.33-12.93,4.723,4.723,0,0,1,7.83,1.11,56.17,56.17,0,0,0,98.48,6.5v-.01a52.421,52.421,0,0,1-11.54-32.87,43.055,43.055,0,0,1,43-43,35.391,35.391,0,0,1,35.34,35.35,29.251,29.251,0,0,1-29.21,29.21,24.335,24.335,0,0,1-24.32-24.32,4.72,4.72,0,0,1,9.44,0,14.89,14.89,0,0,0,14.88,14.88,19.794,19.794,0,0,0,19.77-19.77,25.925,25.925,0,0,0-25.9-25.9,33.587,33.587,0,0,0-33.55,33.55,42.992,42.992,0,0,0,11.19,28.98.01.01,0,0,0,.01.01,66.971,66.971,0,0,0,74.89,11.02C442.8,329.32,442.93,329.28,443.03,329.23Z" transform="translate(-11.56 -122.16)"/></svg>