<svg xmlns="http://www.w3.org/2000/svg" viewBox="0 0 407.862 505.67"><path d="M315.839,20.44l-1.7.418-1.258-1.221A32.231,32.231,0,0,0,277.332,13.4l-2.009.9-1.543-1.57a31.88,31.88,0,0,0-22.923-9.565,32.338,32.338,0,0,0-25.9,13.049l-1.506,2.035-2.316-1.022a32.28,32.28,0,0,0-40.793,13.2l-1.231,2.1-2.346-.65a38.541,38.541,0,0,0-47.76,27.961l-.55,2.251-2.313.154a32.08,32.08,0,0,0-30,30.966l-.011.307-.069.3A303.853,303.853,0,0,0,88.1,162.808v54.409L52.445,320.079a6.833,6.833,0,0,0,6.459,9.073H96.112V348.5a60.405,60.405,0,0,0,5.576,25.468l1.341,2.907-2.923,1.307a30.339,30.339,0,0,0-7.311,50.84l2.187,1.867-1.649,2.355a34.345,34.345,0,0,0,26.949,54.05l1.759.06.877,1.526a35.875,35.875,0,0,0,50.573,12.191l1.932-1.253,1.787,1.453a33.885,33.885,0,0,0,34.241,5.012l.836-.343.891.15a53.872,53.872,0,0,0,62.777-53.141l0-3.292,2.551-.5a32.875,32.875,0,0,0,21.446-49.73l-1.451-2.308,2.067-1.777a32.942,32.942,0,0,0,11.555-24.971,32.561,32.561,0,0,0-27.962-32.5l-1.007-.147-.732-.706A39.156,39.156,0,0,0,255.1,325.992c-14.958,0-29.691,9.333-36.66,23.224L217.4,351.3l-2.3-.386a43.227,43.227,0,0,1-21.565-10.3l-12.5-11.086a55.733,55.733,0,0,0-37.017-14.054H105.451a6.255,6.255,0,0,0-.831.062l-.4.054-.4-.05a6.966,6.966,0,0,0-.861-.066H68.508L101.4,220.6a6.742,6.742,0,0,0,.374-2.229V162.808a290.56,290.56,0,0,1,2.164-35.236l.583-4.759,4.147,2.406a35.493,35.493,0,0,0,32.148,1.764l1.67-.743,1.478,1.076a35.533,35.533,0,0,0,8.035,4.4,35.016,35.016,0,0,0,28.1-1.026l2.086-1,1.586,1.684a35.609,35.609,0,0,0,28.361,11.08l2.671-.194.634,2.6a35.512,35.512,0,0,0,21.63,24.664c.914.357,1.86.68,2.809.96l2.463.728-.205,2.56c-.09,1.124-.136,2.264-.136,3.39a42.686,42.686,0,0,0,42.606,42.45,4.82,4.82,0,0,1,.487.026l1.815-.1a6.868,6.868,0,0,0,5.976-4.253l11.992-29.648.06-.139a28.381,28.381,0,0,1,37.015-14.184l1.484.639a28.369,28.369,0,0,1,17.141,26.065,182.1,182.1,0,0,1-13.289,68.447l-5.1,12.632a23.391,23.391,0,0,1-21.787,14.7,12.511,12.511,0,0,1,0-25.022h3.157a6.835,6.835,0,1,0,0-13.67H320.4a26.181,26.181,0,0,0,0,52.362,37.006,37.006,0,0,0,34.464-23.254l5.1-12.633c1.866-4.623,3.6-9.45,5.148-14.347l.655-2.067,2.165-.135a6.814,6.814,0,0,0,4.41-11.649,6.592,6.592,0,0,0-1.083-.873l-1.822-1.189.456-2.126a196.824,196.824,0,0,0,4.353-41.176A42.025,42.025,0,0,0,348.853,159.4l-1.483-.638c-.725-.312-1.508-.618-2.465-.961l-2.64-.949.625-2.735a6.866,6.866,0,0,0,.172-1.526,6.771,6.771,0,0,0-2.76-5.493,22.838,22.838,0,0,1-8.867-14.214l-.035-.189a6.824,6.824,0,0,0-11.824-3.287l-2.244,2.53-2.376-2.406a56.133,56.133,0,0,0-10.3-8.226l-2-1.241.613-2.27a6.789,6.789,0,0,0,.141-2.887,55.3,55.3,0,0,0-28.2-39.692,56.022,56.022,0,0,0-6.773-3.116l-1.683-.645-.3-1.777a55.36,55.36,0,0,0-27.761-39.256c-.488-.27-.983-.521-1.477-.773l-3.638-1.86,2.057-2.973A18.521,18.521,0,0,1,267.4,27.034a6.839,6.839,0,0,0,10.685,2,18.516,18.516,0,0,1,28.037,3.805,6.8,6.8,0,0,0,8.9,2.4,18.277,18.277,0,0,1,8.482-2.062,18.617,18.617,0,0,1,18.313,15.744,6.833,6.833,0,0,0,8.849,5.5,18.532,18.532,0,0,1,24.178,17.55v.117a6.837,6.837,0,0,0,6.975,6.837l.853-.026a34.206,34.206,0,0,1,33.022,43.079,6.821,6.821,0,0,0,4.118,8.134,41.533,41.533,0,0,1,18.69,62.873,6.834,6.834,0,0,0,0,7.963,41.558,41.558,0,0,1,4.4,40.559,6.822,6.822,0,0,0,0,5.4,41.568,41.568,0,0,1-38.189,57.947,6.836,6.836,0,0,0,0,13.671c1.036,0,2.136-.038,3.365-.116l3.363-.211V502a6.835,6.835,0,1,0,13.67,0V314.643l1.884-.834A55.233,55.233,0,0,0,456.9,245.241l-.361-1.037.36-1.038A55.28,55.28,0,0,0,453.1,198.5l-.846-1.53.846-1.531a55.24,55.24,0,0,0-21.183-74.683l-1.8-1.01.2-2.051c.146-1.521.22-3.068.22-4.6a48.17,48.17,0,0,0-40.606-47.317l-2.027-.309-.546-1.977a32.289,32.289,0,0,0-31.036-23.623c-.238,0-.481,0-.72.01l-2.068.06-.885-1.871A32.136,32.136,0,0,0,315.839,20.44ZM144.014,329.152a42.072,42.072,0,0,1,27.944,10.609l12.5,11.086a56.878,56.878,0,0,0,36.838,14.332h.948a6.838,6.838,0,0,0,6.6-5.078c2.981-11.27,14.76-20.438,26.259-20.438a25.683,25.683,0,0,1,19.619,9.11,6.836,6.836,0,0,0,5.037,2.415,19.077,19.077,0,0,1,18.684,19.179,19.3,19.3,0,0,1-13.733,18.4,6.861,6.861,0,0,0-4.815,5.514,6.747,6.747,0,0,0-.081,1.043,6.821,6.821,0,0,0,3.015,5.663A19.192,19.192,0,0,1,272.119,436.1a19.67,19.67,0,0,1-3.077-.247,6.836,6.836,0,0,0-7.749,8.248,40.206,40.206,0,0,1-48.37,48,6.821,6.821,0,0,0-4.793.642,19.91,19.91,0,0,1-9.585,2.417,20.165,20.165,0,0,1-16.841-9.056,6.836,6.836,0,0,0-10.877-.681,22.188,22.188,0,0,1-37.914-7.534,6.869,6.869,0,0,0-7.723-4.591,21.119,21.119,0,0,1-3.723.339A20.69,20.69,0,0,1,111.3,434.933a6.84,6.84,0,0,0,3.466-5.944,6.934,6.934,0,0,0-.09-1.1,6.857,6.857,0,0,0-5.436-5.608,16.682,16.682,0,0,1,.828-32.879l1.62-.235,1.128,1.186a61.15,61.15,0,0,0,10.367,8.726,6.836,6.836,0,1,0,7.588-11.373,47.023,47.023,0,0,1-20.983-39.2V329.152ZM272.9,126.67c1.664.137,3.115.2,4.435.2.764,0,1.527-.027,2.291-.056l.244-.01.242.029a42.037,42.037,0,0,1,34.663,27.479l1.306,3.647-3.833.551a41.981,41.981,0,0,1-45.4-27.328l-1.3-3.639,3.825-.558c.954-.139,1.951-.244,3.045-.322l.242-.017Zm-4.248-39.459a41.921,41.921,0,0,1,18.741,20.963l1.453,3.585-3.8.714a41.82,41.82,0,0,1-4.67.6l-.246.018-.245-.02a55.152,55.152,0,0,0-6.756-.129l-.244.01-.243-.027a42.056,42.056,0,0,1-34.106-25.85l-1.453-3.586,3.8-.714A41.946,41.946,0,0,1,268.651,87.211Zm-54.8-12.167a55.887,55.887,0,0,0,6.773,3.2l1.659.652.3,1.757a55.428,55.428,0,0,0,26.956,38.692l1.741,1-.171,2q-.027.32-.027.645a6.605,6.605,0,0,0,.046.8,55.307,55.307,0,0,0,26.514,40.841,55.947,55.947,0,0,0,15.14,6.311l4.148,1.048-2.216,3.66a41.747,41.747,0,0,0-2.338,4.439c-.034.073-.063.145-.091.213l-10.357,25.614-2.543-.474a29.173,29.173,0,0,1-5.208-1.474,28.708,28.708,0,0,1-18.485-26.88,29.1,29.1,0,0,1,1.684-9.736,6.835,6.835,0,0,0-6.694-9.108,21.673,21.673,0,0,1-8.664-1.471,21.748,21.748,0,0,1-13.755-22.87,7.067,7.067,0,0,0,.048-.809,6.836,6.836,0,0,0-9.675-6.219,21.777,21.777,0,0,1-28.508-10.029,6.832,6.832,0,0,0-10.683-2.011,21.789,21.789,0,0,1-30.916-1.738,6.805,6.805,0,0,0-9.162-.992,21.794,21.794,0,0,1-26.618-.624,6.734,6.734,0,0,0-2.937-1.38l-3.1-.624.617-3.1c.713-3.584,1.468-7.063,2.245-10.34l.032-.192.019-.061c.019-.1.1-.593.1-.593s.047-.637.05-.712c0-.057,0-.114,0-.175a18.535,18.535,0,0,1,23.243-17.858,6.837,6.837,0,0,0,8.569-6.615l-.023-.828a24.857,24.857,0,0,1,38-21.1,6.811,6.811,0,0,0,6.331.478l.2-.1,2.924-1.462,1.366,2.971A55.1,55.1,0,0,0,213.847,75.044Zm18.185-32.681a41.927,41.927,0,0,1,18.576,21.11l1.427,3.6-3.81.684A41.989,41.989,0,0,1,201.919,41.99l-1.424-3.6,3.806-.684A41.921,41.921,0,0,1,232.032,42.363Z" transform="translate(-52.069 -3.165)"/></svg>