<svg width="18" height="25" viewBox="0 0 18 25" fill="none" xmlns="http://www.w3.org/2000/svg">
            <path d="M9.07278 24.3255C7.65243 24.3253 6.25717 23.9511 5.02735 23.2405C3.79753 22.5299 2.77652 21.508 2.06703 20.2776C1.35753 19.0471 0.98457 17.6515 0.985659 16.2312C0.986748 14.8109 1.36185 13.4158 2.07323 12.1865V12.1865L8.08071 1.75606C8.18274 1.5817 8.32864 1.43708 8.50389 1.33658C8.67914 1.23608 8.87764 1.1832 9.07967 1.1832C9.28169 1.1832 9.48019 1.23608 9.65544 1.33658C9.83069 1.43708 9.97659 1.5817 10.0786 1.75606L16.0861 12.1589C16.7981 13.3893 17.1732 14.7856 17.1737 16.2071C17.1742 17.6286 16.8 19.0251 16.0889 20.256C15.3777 21.4868 14.3548 22.5085 13.123 23.2181C11.8913 23.9277 10.4943 24.3002 9.07278 24.2979V24.3255Z" stroke="white" stroke-width="1.2" stroke-linecap="round" stroke-linejoin="round"/>
            <path d="M13.1513 14.9422C13.3912 15.8131 13.3392 16.7386 13.0033 17.5772C12.6674 18.4158 12.066 19.1212 11.2911 19.5856" stroke="white" stroke-width="1.2" stroke-linecap="round" stroke-linejoin="round"/>
            </svg>