<svg viewBox="0 0 74 74" xmlns="http://www.w3.org/2000/svg"><path d="m33 72a15 15 0 0 1 -1.76-.1 15.27 15.27 0 0 1 -13.41-13.57 15.77 15.77 0 0 1 7.17-14.83v-33.95a.37.37 0 0 1 0-.11 8.22 8.22 0 0 1 8-7.44 7.19 7.19 0 0 1 5.52 2.48 6.4 6.4 0 0 1 1.48 5.15v33.81a14.65 14.65 0 0 1 8.26 13.27 15.28 15.28 0 0 1 -5.08 11.37 15.09 15.09 0 0 1 -10.18 3.92zm-6-62.39v34.46a1 1 0 0 1 -.51.87 13.72 13.72 0 0 0 -6.68 13.19 13.26 13.26 0 0 0 26.45-1.42 12.73 12.73 0 0 0 -7.68-11.71 1 1 0 0 1 -.58-.91v-34.54a.86.86 0 0 1 0-.16 4.4 4.4 0 0 0 -1-3.64 5.21 5.21 0 0 0 -4-1.75 6.22 6.22 0 0 0 -6 5.61z"/><path d="m32 11.74h2v29.61h-2z"/><path d="m44.52 6h10.97v2h-10.97z"/><path d="m44.52 16h10.97v2h-10.97z"/><path d="m44.52 16h10.97v2h-10.97z"/><path d="m44.52 26h10.97v2h-10.97z"/><path d="m44.52 36h10.97v2h-10.97z"/><path d="m44.52 11h4.39v2h-4.39z"/><path d="m44.52 21h4.39v2h-4.39z"/><path d="m44.52 21h4.39v2h-4.39z"/><path d="m44.52 31h4.39v2h-4.39z"/><path d="m44.52 41h4.39v2h-4.39z"/><path d="m34 66.39v-2a6.69 6.69 0 0 0 6.68-6.68h2a8.68 8.68 0 0 1 -8.68 8.68z"/></svg>
