<svg viewBox="0 0 74 74" xmlns="http://www.w3.org/2000/svg"><path d="m45.638 24.193h-29.768a1 1 0 0 1 0-2h29.768a6.221 6.221 0 0 0 6.4-6.341 6.332 6.332 0 0 0 -1.91-4.553 6.239 6.239 0 0 0 -4.589-1.826 6.48 6.48 0 0 0 -5.787 4.076 5.844 5.844 0 0 0 -.438 2.947 1 1 0 1 1 -1.988.213 7.879 7.879 0 0 1 .582-3.932 8.479 8.479 0 0 1 7.595-5.3 8.364 8.364 0 1 1 .132 16.72z"/><path d="m62.944 37.093h-41.536a1 1 0 0 1 0-2h41.536a6.457 6.457 0 0 0 1.717-.189 6.38 6.38 0 0 0 -1.812-12.531 6.482 6.482 0 0 0 -5.787 4.076 5.836 5.836 0 0 0 -.439 2.947 1 1 0 1 1 -1.988.213 7.9 7.9 0 0 1 .581-3.932 8.484 8.484 0 0 1 7.6-5.3 8.364 8.364 0 1 1 .132 16.72z"/><path d="m50.736 64.4h-.157a8.481 8.481 0 0 1 -7.6-5.3 7.9 7.9 0 0 1 -.583-3.932 1 1 0 1 1 1.989.213 5.832 5.832 0 0 0 .439 2.947 6.479 6.479 0 0 0 5.791 4.072 6.379 6.379 0 0 0 6.5-6.379 6.221 6.221 0 0 0 -6.4-6.341h-30.93a1 1 0 1 1 0-2h30.925a8.361 8.361 0 1 1 .026 16.72z"/><path d="m13.69 49.682h-9.474a1 1 0 0 1 0-2h9.474a1 1 0 0 1 0 2z"/><path d="m9.153 24.193h-4.937a1 1 0 0 1 0-2h4.937a1 1 0 1 1 0 2z"/><path d="m15.136 37.093h-4.8a1 1 0 0 1 0-2h4.8a1 1 0 0 1 0 2z"/><path d="m35.843 30.643h-2.135a1 1 0 0 1 0-2h2.135a1 1 0 0 1 0 2z"/><path d="m28.192 30.643h-25.845a1 1 0 0 1 0-2h25.845a1 1 0 0 1 0 2z"/><path d="m47.473 43.388h-2.135a1 1 0 0 1 0-2h2.135a1 1 0 0 1 0 2z"/><path d="m39.822 43.388h-36.229a1 1 0 1 1 0-2h36.229a1 1 0 0 1 0 2z"/></svg>
