<svg xmlns="http://www.w3.org/2000/svg" ><text transform="translate(39.338 16.851)" style="font-size:17px;font-family:HelveticaNeue-Bold, Helvetica Neue;font-weight:700">bohemiandash</text><path d="M15.922,23.349,11.78,17.365l1.746-1.209,2.4,3.464,2.4-3.464,1.745,1.209Z"/><path d="M8.492,19.107A8.489,8.489,0,0,1,8.214,2.134l.044,2.122a6.366,6.366,0,1,0,6.511,7.417l2.094.346A8.451,8.451,0,0,1,8.492,19.107Z"/><path d="M8.492,14.861a4.246,4.246,0,1,1,4.246-4.246A4.251,4.251,0,0,1,8.492,14.861Zm0-6.369a2.123,2.123,0,1,0,2.123,2.123A2.125,2.125,0,0,0,8.492,8.492Z"/><path d="M23.352,19.107a8.452,8.452,0,0,1-8.371-7.088l2.1-.346a6.367,6.367,0,1,0,6.487-7.418l.023-2.122a8.489,8.489,0,0,1-.234,16.974Z"/><path d="M23.352,14.861A4.246,4.246,0,1,1,27.6,10.615,4.25,4.25,0,0,1,23.352,14.861Zm0-6.369a2.123,2.123,0,1,0,2.123,2.123A2.125,2.125,0,0,0,23.352,8.492Z"/><path d="M15.922,15.173l-1-2.682A15.98,15.98,0,0,0,0,2.123V0A18.13,18.13,0,0,1,15.922,9.544,18.131,18.131,0,0,1,31.844,0V2.123A15.981,15.981,0,0,0,16.917,12.491Z"/></svg>