<svg width="27" height="22" viewBox="0 0 27 22" fill="none" xmlns="http://www.w3.org/2000/svg">
            <path d="M19.3809 7.16656C19.4385 6.53325 19.6786 5.93025 20.0722 5.43074C20.4657 4.93123 20.9958 4.55666 21.598 4.35248C22.2003 4.1483 22.8488 4.12329 23.465 4.28048C24.0812 4.43767 24.6385 4.77031 25.0694 5.23803C25.5002 5.70575 25.7861 6.28846 25.8923 6.91546C25.9984 7.54245 25.9204 8.18679 25.6675 8.77028C25.4147 9.35378 24.998 9.85136 24.4679 10.2027C23.9378 10.554 23.3172 10.7439 22.6813 10.7494H2.80487" stroke="white" stroke-width="1.2" stroke-linecap="round" stroke-linejoin="round"/>
            <path d="M9.30146 4.02974C9.35903 3.39938 9.59827 2.79928 9.99018 2.30221C10.3821 1.80515 10.9098 1.43249 11.5093 1.22943C12.1088 1.02638 12.7544 1.00166 13.3677 1.15826C13.981 1.31487 14.5357 1.64608 14.9645 2.11172C15.3932 2.57735 15.6777 3.1574 15.7833 3.78151C15.8889 4.40561 15.8111 5.04695 15.5594 5.62774C15.3077 6.20852 14.8929 6.70378 14.3653 7.05345C13.8376 7.40313 13.2199 7.59218 12.5869 7.59768H0.946533" stroke="white" stroke-width="1.2" stroke-linecap="round" stroke-linejoin="round"/>
            <path d="M15.2629 17.4838C15.3234 18.1168 15.5662 18.7187 15.9619 19.2164C16.3577 19.7141 16.8893 20.0863 17.4924 20.2878C18.0955 20.4893 18.7441 20.5114 19.3596 20.3516C19.975 20.1917 20.5308 19.8567 20.9596 19.3871C21.3884 18.9176 21.6717 18.3337 21.7752 17.7064C21.8787 17.079 21.7979 16.435 21.5427 15.8527C21.2874 15.2703 20.8686 14.7745 20.3371 14.4254C19.8056 14.0764 19.1843 13.889 18.5484 13.8862H6.90802" stroke="white" stroke-width="1.2" stroke-linecap="round" stroke-linejoin="round"/>
            </svg>